<svg xmlns="http://www.w3.org/2000/svg" xmlns:xlink="http://www.w3.org/1999/xlink" version="1.1"
    x="0px" y="0px" viewBox="0 0 100 100" enable-background="new 0 0 100 100" xml:space="preserve"><g><path d="M49.97,5.104c-24.778,0-44.865,20.087-44.865,44.865S25.192,94.833,49.97,94.833s44.865-20.087,44.865-44.865   S74.748,5.104,49.97,5.104z M49.97,90.833c-22.533,0-40.865-18.332-40.865-40.865c0-22.533,18.332-40.865,40.865-40.865   s40.865,18.332,40.865,40.865C90.835,72.502,72.503,90.833,49.97,90.833z M71.883,27.554c-0.669-0.342-1.471-0.282-2.08,0.155   L55.47,38.006v-8.672c0-0.75-0.42-1.437-1.087-1.78c-0.669-0.342-1.471-0.282-2.08,0.155l-29,20.833   c-0.522,0.376-0.833,0.98-0.833,1.625s0.311,1.249,0.833,1.625l29,20.833c0.609,0.437,1.411,0.497,2.08,0.155   c0.667-0.343,1.087-1.03,1.087-1.78v-8.672l14.333,10.297C70.149,72.873,70.559,73,70.97,73c0.312,0,0.625-0.073,0.913-0.22   c0.667-0.343,1.087-1.03,1.087-1.78V29.333C72.97,28.583,72.55,27.896,71.883,27.554z M68.97,67.101L54.637,56.804   c-0.347-0.249-0.756-0.375-1.167-0.375c-0.312,0-0.625,0.073-0.913,0.22c-0.667,0.343-1.087,1.03-1.087,1.78v8.672L27.897,50.167   L51.47,33.233v8.672c0,0.75,0.42,1.437,1.087,1.78c0.668,0.342,1.471,0.281,2.08-0.155L68.97,33.233V67.101z" fill="#003449"/></g></svg>