<svg xmlns="http://www.w3.org/2000/svg" xmlns:xlink="http://www.w3.org/1999/xlink" version="1.1"
    x="0px" y="0px" viewBox="0 0 100 100" enable-background="new 0 0 100 100" xml:space="preserve"><g><path d="M43.74,27.333h-10c-1.104,0-2,0.896-2,2V71c0,1.104,0.896,2,2,2h10c1.104,0,2-0.896,2-2V29.333   C45.74,28.229,44.844,27.333,43.74,27.333z M41.74,69h-6V31.333h6V69z M66.573,27.333h-10c-1.104,0-2,0.896-2,2V71   c0,1.104,0.896,2,2,2h10c1.104,0,2-0.896,2-2V29.333C68.573,28.229,67.677,27.333,66.573,27.333z M64.573,69h-6V31.333h6V69z    M50.156,5.104c-24.778,0-44.865,20.087-44.865,44.865s20.087,44.865,44.865,44.865s44.865-20.087,44.865-44.865   S74.934,5.104,50.156,5.104z M50.156,90.833c-22.533,0-40.865-18.332-40.865-40.865c0-22.533,18.332-40.865,40.865-40.865   c22.533,0,40.865,18.332,40.865,40.865C91.021,72.502,72.689,90.833,50.156,90.833z" fill="white"/></g></svg>