<svg xmlns="http://www.w3.org/2000/svg" xmlns:xlink="http://www.w3.org/1999/xlink" version="1.1"
    x="0px" y="0px" viewBox="0 0 100 100" enable-background="new 0 0 100 100" xml:space="preserve"><g><path d="M50,5.104c-24.778,0-44.865,20.087-44.865,44.865S25.222,94.833,50,94.833s44.865-20.087,44.865-44.865   S74.778,5.104,50,5.104z M50,90.833c-22.533,0-40.865-18.332-40.865-40.865C9.135,27.436,27.467,9.104,50,9.104   s40.865,18.332,40.865,40.865C90.865,72.502,72.533,90.833,50,90.833z M71.167,48.542l-29-20.833   c-0.61-0.438-1.414-0.498-2.08-0.155C39.42,27.896,39,28.583,39,29.333V71c0,0.75,0.42,1.437,1.087,1.78   C40.375,72.927,40.688,73,41,73c0.411,0,0.82-0.127,1.167-0.375l29-20.833C71.69,51.415,72,50.811,72,50.167   S71.69,48.918,71.167,48.542z M43,67.101V33.233l23.572,16.934L43,67.101z" fill="white"/></g></svg>